<svg aria-roledescription="pie" role="graphics-document document" style="max-width: 662.0390625px;" viewBox="0 0 662.0390625 450" xmlns="http://www.w3.org/2000/svg" width="100%" id="svg-mermaid-1735265826897-1"><style>#svg-mermaid-1735265826897-1{font-family:"trebuchet ms",verdana,arial,sans-serif;font-size:16px;fill:#333;}#svg-mermaid-1735265826897-1 .error-icon{fill:#552222;}#svg-mermaid-1735265826897-1 .error-text{fill:#552222;stroke:#552222;}#svg-mermaid-1735265826897-1 .edge-thickness-normal{stroke-width:1px;}#svg-mermaid-1735265826897-1 .edge-thickness-thick{stroke-width:3.5px;}#svg-mermaid-1735265826897-1 .edge-pattern-solid{stroke-dasharray:0;}#svg-mermaid-1735265826897-1 .edge-thickness-invisible{stroke-width:0;fill:none;}#svg-mermaid-1735265826897-1 .edge-pattern-dashed{stroke-dasharray:3;}#svg-mermaid-1735265826897-1 .edge-pattern-dotted{stroke-dasharray:2;}#svg-mermaid-1735265826897-1 .marker{fill:#333333;stroke:#333333;}#svg-mermaid-1735265826897-1 .marker.cross{stroke:#333333;}#svg-mermaid-1735265826897-1 svg{font-family:"trebuchet ms",verdana,arial,sans-serif;font-size:16px;}#svg-mermaid-1735265826897-1 p{margin:0;}#svg-mermaid-1735265826897-1 .pieCircle{stroke:black;stroke-width:2px;opacity:0.7;}#svg-mermaid-1735265826897-1 .pieOuterCircle{stroke:black;stroke-width:2px;fill:none;}#svg-mermaid-1735265826897-1 .pieTitleText{text-anchor:middle;font-size:25px;fill:black;font-family:"trebuchet ms",verdana,arial,sans-serif;}#svg-mermaid-1735265826897-1 .slice{font-family:"trebuchet ms",verdana,arial,sans-serif;fill:#333;font-size:17px;}#svg-mermaid-1735265826897-1 .legend text{fill:black;font-family:"trebuchet ms",verdana,arial,sans-serif;font-size:17px;}#svg-mermaid-1735265826897-1 :root{--mermaid-font-family:"trebuchet ms",verdana,arial,sans-serif;}</style><g></g><g transform="translate(225,225)"><circle class="pieOuterCircle" r="186" cy="0" cx="0"></circle><path class="pieCircle" fill="#ECECFF" d="M0,-185A185,185,0,1,1,-5.431,184.92L0,0Z"></path><path class="pieCircle" fill="#ffffde" d="M-5.431,184.92A185,185,0,0,1,-184.502,13.567L0,0Z"></path><path class="pieCircle" fill="hsl(80, 100%, 56.2745098039%)" d="M-184.502,13.567A185,185,0,0,1,-174.554,-61.285L0,0Z"></path><path class="pieCircle" fill="hsl(240, 100%, 86.2745098039%)" d="M-174.554,-61.285A185,185,0,0,1,-149.348,-109.179L0,0Z"></path><path class="pieCircle" fill="hsl(60, 100%, 63.5294117647%)" d="M-149.348,-109.179A185,185,0,0,1,-111.36,-147.729L0,0Z"></path><path class="pieCircle" fill="hsl(80, 100%, 76.2745098039%)" d="M-111.36,-147.729A185,185,0,0,1,-73.921,-169.59L0,0Z"></path><path class="pieCircle" fill="hsl(300, 100%, 76.2745098039%)" d="M-73.921,-169.59A185,185,0,0,1,-43.055,-179.92L0,0Z"></path><path class="pieCircle" fill="hsl(180, 100%, 56.2745098039%)" d="M-43.055,-179.92A185,185,0,0,1,-10.857,-184.681L0,0Z"></path><path class="pieCircle" fill="hsl(0, 100%, 56.2745098039%)" d="M-10.857,-184.681A185,185,0,0,1,0,-185L0,0Z"></path><text style="text-anchor: middle;" class="slice" transform="translate(138.7350490979874,2.0368239440426694)">50%</text><text style="text-anchor: middle;" class="slice" transform="translate(-95.92699864743076,100.24756072092634)">23%</text><text style="text-anchor: middle;" class="slice" transform="translate(-137.54071587990904,-18.27878484041358)">7%</text><text style="text-anchor: middle;" class="slice" transform="translate(-122.78413037191427,-64.6190361179487)">5%</text><text style="text-anchor: middle;" class="slice" transform="translate(-98.82856829438533,-97.38827747158285)">5%</text><text style="text-anchor: middle;" class="slice" transform="translate(-69.96216858061189,-119.82010460477008)">4%</text><text style="text-anchor: middle;" class="slice" transform="translate(-44.036752250377425,-131.57631607260814)">3%</text><text style="text-anchor: middle;" class="slice" transform="translate(-20.295887103937662,-137.2575661545265)">3%</text><text style="text-anchor: middle;" class="slice" transform="translate(-4.073208935217925,-138.69019961399601)">1%</text><text class="pieTitleText" y="-200" x="0">厦门首付 107 万</text><g transform="translate(216,-99)" class="legend"><rect style="fill: rgb(236, 236, 255); stroke: rgb(236, 236, 255);" height="18" width="18"></rect><text y="14" x="22">建瓯卖房到手 54</text></g><g transform="translate(216,-77)" class="legend"><rect style="fill: rgb(255, 255, 222); stroke: rgb(255, 255, 222);" height="18" width="18"></rect><text y="14" x="22">小姨 25（还10）</text></g><g transform="translate(216,-55)" class="legend"><rect style="fill: rgb(181, 255, 32); stroke: rgb(181, 255, 32);" height="18" width="18"></rect><text y="14" x="22">苏爸 7（还2）</text></g><g transform="translate(216,-33)" class="legend"><rect style="fill: rgb(185, 185, 255); stroke: rgb(185, 185, 255);" height="18" width="18"></rect><text y="14" x="22">阿坤 5（还清）</text></g><g transform="translate(216,-11)" class="legend"><rect style="fill: rgb(255, 255, 69); stroke: rgb(255, 255, 69);" height="18" width="18"></rect><text y="14" x="22">秋平朋友 5（还清）</text></g><g transform="translate(216,11)" class="legend"><rect style="fill: rgb(215, 255, 134); stroke: rgb(215, 255, 134);" height="18" width="18"></rect><text y="14" x="22">秋平 4</text></g><g transform="translate(216,33)" class="legend"><rect style="fill: rgb(255, 134, 255); stroke: rgb(255, 134, 255);" height="18" width="18"></rect><text y="14" x="22">妈妈 3（还清）</text></g><g transform="translate(216,55)" class="legend"><rect style="fill: rgb(32, 255, 255); stroke: rgb(32, 255, 255);" height="18" width="18"></rect><text y="14" x="22">玉丽 3（还清）</text></g><g transform="translate(216,77)" class="legend"><rect style="fill: rgb(255, 32, 32); stroke: rgb(255, 32, 32);" height="18" width="18"></rect><text y="14" x="22">存款 1</text></g></g></svg>